<svg width="26" height="32" viewBox="0 0 26 32" fill="none" xmlns="http://www.w3.org/2000/svg">
<path d="M8.5 23.5H13M1 4V28C1 28.7956 1.31607 29.5587 1.87868 30.1213C2.44129 30.6839 3.20435 31 4 31H22C22.7956 31 23.5587 30.6839 24.1213 30.1213C24.6839 29.5587 25 28.7956 25 28V10.513C25 10.1133 24.92 9.71772 24.765 9.34937C24.6099 8.98102 24.3828 8.64736 24.097 8.368L17.437 1.855C16.8765 1.30699 16.1239 1.0001 15.34 1H4C3.20435 1 2.44129 1.31607 1.87868 1.87868C1.31607 2.44129 1 3.20435 1 4V4ZM8.5 17.5H17.5H8.5Z" stroke="white" stroke-width="2" stroke-linecap="round" stroke-linejoin="round"/>
<path d="M16 1V7C16 7.79565 16.3161 8.55871 16.8787 9.12132C17.4413 9.68393 18.2044 10 19 10H25" stroke="white" stroke-width="2" stroke-linejoin="round"/>
</svg>
